<svg width="210" height="62" viewBox="0 0 210 62" fill="none" xmlns="http://www.w3.org/2000/svg">
<g clip-path="url(#clip0_226_106)">
<path d="M0 6.2C0 2.77583 2.78578 0 6.22222 0H203.778C207.214 0 210 2.77583 210 6.2V55.8C210 59.2241 207.214 62 203.778 62H6.22222C2.78578 62 0 59.2241 0 55.8V6.2Z" fill="white"/>
<path d="M165.247 23.4893C165.001 23.744 164.875 24.0512 164.875 24.4107C164.875 24.7703 165.001 25.081 165.247 25.3431C165.496 25.6054 165.802 25.7364 166.164 25.7364C166.516 25.7364 166.815 25.6054 167.062 25.3431C167.309 25.081 167.434 24.7703 167.434 24.4107C167.434 24.0512 167.309 23.744 167.062 23.4893C166.815 23.2347 166.516 23.1074 166.164 23.1074C165.802 23.1074 165.496 23.2347 165.247 23.4893Z" fill="#0C0C0C"/>
<path fill-rule="evenodd" clip-rule="evenodd" d="M161.988 34.9946H161.84C161.415 34.9946 161.013 34.9534 160.627 34.871C160.241 34.7886 159.893 34.6201 159.588 34.3654C159.165 34.7849 158.633 34.9946 157.992 34.9946H149.205C148.405 34.9946 147.808 34.755 147.414 34.2755C147.019 33.7961 146.824 33.1146 146.824 32.2308V29.6466H148.485V31.9611C148.485 32.4405 148.582 32.7737 148.78 32.961C148.975 33.1482 149.292 33.2418 149.729 33.2418H157.642C158.093 33.2418 158.385 33.1371 158.516 32.9273C158.648 32.7176 158.712 32.3974 158.712 31.9611V29.6466H160.417V32.051C160.417 32.5154 160.566 32.8299 160.868 32.9948C161.167 33.1595 161.489 33.2418 161.84 33.2418L166.56 33.242C167.085 33.242 167.423 33.1335 167.577 32.9162C167.729 32.699 167.799 32.4406 167.784 32.141L165.642 32.0736C164.898 32.0437 164.36 31.789 164.024 31.3096C163.69 30.8302 163.522 30.2161 163.522 29.467C163.522 29.0626 163.59 28.69 163.729 28.3435C163.868 27.999 164.061 27.6994 164.309 27.4447C164.556 27.19 164.852 26.9915 165.194 26.8492C165.536 26.7069 165.919 26.6357 166.342 26.6357C166.835 26.6357 167.274 26.7424 167.653 26.9502C168.031 27.16 168.349 27.4334 168.604 27.7705C168.859 28.1075 169.05 28.4895 169.182 28.9164C169.315 29.3434 169.38 29.7816 169.38 30.231V31.5119C169.38 31.9763 169.329 32.4182 169.227 32.8376C169.123 33.2589 168.966 33.6278 168.756 33.9499C168.546 34.2738 168.279 34.5266 167.96 34.7139C167.639 34.9011 167.26 34.9947 166.822 34.9947H162.014L161.988 34.9946ZM167.664 29.6804C167.743 29.9275 167.784 30.1728 167.784 30.4106L165.992 30.3432C165.759 30.3302 165.522 30.272 165.281 30.1747C165.041 30.0774 164.92 29.8714 164.92 29.5567C164.92 29.2272 165.012 28.95 165.194 28.7253C165.376 28.5007 165.698 28.3883 166.165 28.3883C166.415 28.3883 166.636 28.4482 166.833 28.5681C167.029 28.6898 167.197 28.8414 167.336 29.0286C167.474 29.216 167.583 29.4332 167.664 29.6804Z" fill="#0C0C0C"/>
<path d="M140.921 34.9939H139.325V24.0508H140.921V34.9939Z" fill="#0C0C0C"/>
<path d="M134.976 25.5793C134.727 25.834 134.605 26.1411 134.605 26.5005C134.605 26.8601 134.727 27.1709 134.976 27.4331C135.224 27.6952 135.53 27.8264 135.894 27.8264C136.244 27.8264 136.541 27.6952 136.791 27.4331C137.038 27.1709 137.162 26.8601 137.162 26.5005C137.162 26.1411 137.038 25.834 136.791 25.5793C136.541 25.3247 136.244 25.1973 135.894 25.1973C135.53 25.1973 135.224 25.3247 134.976 25.5793Z" fill="#0C0C0C"/>
<path d="M134.2 36.9045C133.698 37.339 132.936 37.5561 131.916 37.5561H130.867L131.173 39.3089L132.528 39.3314C133.17 39.3445 133.749 39.234 134.264 38.9944C134.783 38.7546 135.22 38.4251 135.577 38.0056C135.933 37.5862 136.211 37.0918 136.408 36.5226C136.605 35.9533 136.703 35.339 136.703 34.68V29.6465H134.955V35.1068C134.955 35.8708 134.703 36.47 134.2 36.9045Z" fill="#0C0C0C"/>
<path d="M153.773 27.1295C153.773 26.8148 153.88 26.5451 154.091 26.3205C154.301 26.0958 154.561 25.9834 154.868 25.9834C155.173 25.9834 155.43 26.0958 155.641 26.3205C155.854 26.5451 155.958 26.8148 155.958 27.1295C155.958 27.4291 155.854 27.6875 155.641 27.9046C155.43 28.1219 155.173 28.2304 154.868 28.2304C154.561 28.2304 154.301 28.1219 154.091 27.9046C153.88 27.6875 153.773 27.4291 153.773 27.1295Z" fill="#0C0C0C"/>
<path d="M150.8 27.1295C150.8 26.8148 150.908 26.5451 151.117 26.3205C151.328 26.0958 151.596 25.9834 151.915 25.9834C152.208 25.9834 152.458 26.0958 152.671 26.3205C152.882 26.5451 152.986 26.8148 152.986 27.1295C152.986 27.4291 152.882 27.6875 152.671 27.9046C152.458 28.1219 152.208 28.2304 151.915 28.2304C151.596 28.2304 151.328 28.1219 151.117 27.9046C150.908 27.6875 150.8 27.4291 150.8 27.1295Z" fill="#0C0C0C"/>
<path d="M174.757 34.9949C173.91 34.9949 173.241 34.774 172.746 34.3321C172.25 33.8902 172.001 33.173 172.001 32.1862V24.0518H173.662V31.894C173.662 32.4614 173.777 32.8303 174.003 32.9951C174.228 33.1599 174.538 33.2403 174.932 33.2403L177.532 33.2411C177.808 33.2411 178.032 33.2093 178.198 33.14C178.366 33.0726 178.494 32.9827 178.581 32.8723C178.668 32.7581 178.724 32.6233 178.746 32.4659C178.768 32.3086 178.778 32.1401 178.778 31.9622V29.6477H180.483V32.23C180.483 33.0689 180.283 33.7411 179.881 34.2411C179.48 34.7447 178.866 34.9957 178.033 34.9957H175.325C175.306 34.9957 175.289 34.9955 175.272 34.9949H174.757Z" fill="#0C0C0C"/>
<path d="M177.477 37.1636C177.265 37.3791 177.159 37.6393 177.159 37.9371C177.159 38.2534 177.265 38.5213 177.477 38.7479C177.688 38.9726 177.954 39.083 178.275 39.083C178.564 39.083 178.817 38.9726 179.029 38.7479C179.241 38.5213 179.346 38.2534 179.346 37.9371C179.346 37.6393 179.241 37.3791 179.029 37.1636C178.817 36.9465 178.564 36.8359 178.275 36.8359C177.954 36.8359 177.688 36.9465 177.477 37.1636Z" fill="#0C0C0C"/>
<path d="M174.68 37.1636C174.468 37.3791 174.362 37.6393 174.362 37.9371C174.362 38.2534 174.468 38.5213 174.68 38.7479C174.89 38.9726 175.149 39.083 175.453 39.083C175.761 39.083 176.019 38.9726 176.23 38.7479C176.44 38.5213 176.548 38.2534 176.548 37.9371C176.548 37.6393 176.44 37.3791 176.23 37.1636C176.019 36.9465 175.761 36.8359 175.453 36.8359C175.149 36.8359 174.89 36.9465 174.68 37.1636Z" fill="#0C0C0C"/>
<path d="M183.444 36.9035C183.944 36.471 184.198 35.8699 184.198 35.1059V29.6475H185.946V34.6808C185.946 35.3381 185.847 35.9522 185.652 36.5216C185.455 37.0927 185.176 37.5852 184.822 38.0046C184.464 38.424 184.025 38.7498 183.507 38.982C182.992 39.2142 182.414 39.3303 181.771 39.3303L181.029 39.3078L180.745 37.5571H181.16C182.18 37.5571 182.941 37.3379 183.444 36.9035Z" fill="#0C0C0C"/>
<path d="M188.134 33.2646L188.35 34.9948H193.533C194.346 34.9948 194.964 34.7775 195.378 34.3413C195.793 33.9087 196 33.392 196 32.7927C196 32.4612 195.932 32.1261 195.793 31.7815C195.656 31.437 195.446 31.1149 195.169 30.8152L191.453 26.748L190.341 27.9166L194.079 31.9838C194.266 32.1935 194.362 32.4107 194.362 32.6354C194.362 32.8002 194.297 32.9462 194.164 33.0736C194.034 33.2009 193.838 33.2646 193.573 33.2646H188.134Z" fill="#0C0C0C"/>
<path fill-rule="evenodd" clip-rule="evenodd" d="M43.2675 21.5125C46.6667 21.7676 53.6609 22.7373 54.4444 24.5745C54.0604 28.6028 52.6815 37.6652 50.2387 41.6898C47.1851 46.7205 42.1728 51.1496 34.2222 51.1496C26.2716 51.1496 21.2593 46.7205 18.2058 41.6898C15.7629 37.6652 14.3841 28.6028 14 24.5745C14.7835 22.7373 21.7778 21.7676 25.177 21.5125C25.5035 20.6011 26.5827 17.9909 28.2881 14.8413C29.9934 11.6917 32.2058 10.8496 34.2222 10.8496C36.2387 10.8496 38.451 11.6917 40.1564 14.8413C41.8617 17.9909 42.941 20.6011 43.2675 21.5125ZM34.2222 14.2945C35.4321 14.2945 36.7572 15.935 37.2758 16.8645C37.6905 17.6082 38.7736 20.0543 39.2345 21.1844H29.2099C29.6708 20.0543 30.754 17.6082 31.1687 16.8645C31.6873 15.935 33.0123 14.2945 34.2222 14.2945Z" fill="url(#paint0_linear_226_106)"/>
<path d="M84.0769 32.5896C84.0769 34.4619 85.6018 35.9815 87.4809 35.9815C89.3641 35.9815 90.889 34.4619 90.8848 32.5896V15.7923C90.8848 13.9199 89.3599 12.4004 87.4809 12.4004C85.6018 12.4004 84.0769 13.9199 84.0769 15.7923V32.5896Z" fill="black"/>
<path d="M111.196 32.6513H117.963C119.825 32.6513 121.338 34.1542 121.333 36.0142C121.333 37.8699 119.821 39.3769 117.958 39.3769H109.496C106.688 39.3769 104.413 37.1102 104.413 34.312V19.1422C104.413 17.2739 105.934 15.7627 107.805 15.7627C109.68 15.7627 111.196 17.2781 111.196 19.1422V32.6513Z" fill="black"/>
<path d="M73.9356 22.4633C73.9356 20.5951 75.4565 19.084 77.3272 19.084C79.1979 19.084 80.7186 20.5951 80.7146 22.4633V34.312C80.7146 37.1102 78.4396 39.3769 75.6315 39.3769H67.1526C65.2903 39.3769 63.7778 37.8698 63.7778 36.0142C63.7778 34.1584 65.2903 32.6513 67.1526 32.6513H73.9356V22.4633Z" fill="black"/>
<path d="M97.6469 25.8135C95.7761 25.8135 94.2554 27.3246 94.2554 29.1928V39.3808H87.4724C85.61 39.3808 84.0977 40.8878 84.0977 42.7435C84.0977 44.5993 85.61 46.1064 87.4724 46.1064H95.9511C98.7594 46.1064 101.034 43.8395 101.034 41.0415V29.1928C101.034 27.3246 99.5177 25.8135 97.6469 25.8135Z" fill="black"/>
<path d="M97.6469 22.5214C99.5431 22.5214 101.08 20.9898 101.08 19.1005C101.08 17.2112 99.5431 15.6797 97.6469 15.6797C95.7508 15.6797 94.2137 17.2112 94.2137 19.1005C94.2137 20.9898 95.7508 22.5214 97.6469 22.5214Z" fill="black"/>
<path d="M111.284 46.0781C111.284 47.9674 109.747 49.4989 107.851 49.4989C105.955 49.4989 104.417 47.9674 104.417 46.0781C104.417 44.1888 105.955 42.6572 107.851 42.6572C109.747 42.6572 111.284 44.1888 111.284 46.0781Z" fill="black"/>
<path d="M6.22224 1.5502H203.778V-1.5498H6.22224V1.5502ZM208.444 6.2002V55.8002H211.556V6.2002H208.444ZM203.778 60.4502H6.22224V63.5502H203.778V60.4502ZM1.55557 55.8002V6.2002H-1.55554V55.8002H1.55557ZM6.22224 60.4502C3.64491 60.4502 1.55557 58.3684 1.55557 55.8002H-1.55554C-1.55554 60.0804 1.92669 63.5502 6.22224 63.5502V60.4502ZM208.444 55.8002C208.444 58.3684 206.355 60.4502 203.778 60.4502V63.5502C208.073 63.5502 211.556 60.0804 211.556 55.8002H208.444ZM203.778 1.5502C206.355 1.5502 208.444 3.63208 208.444 6.2002H211.556C211.556 1.91999 208.073 -1.5498 203.778 -1.5498V1.5502ZM6.22224 -1.5498C1.92669 -1.5498 -1.55554 1.91999 -1.55554 6.2002H1.55557C1.55557 3.63208 3.64491 1.5502 6.22224 1.5502V-1.5498Z" fill="#E0E0E0"/>
</g>
<defs>
<linearGradient id="paint0_linear_226_106" x1="34.2222" y1="10.8496" x2="34.2222" y2="51.1496" gradientUnits="userSpaceOnUse">
<stop stop-color="#8FC345"/>
<stop offset="1" stop-color="#118F4E"/>
</linearGradient>
<clipPath id="clip0_226_106">
<rect width="210" height="62" fill="white"/>
</clipPath>
</defs>
</svg>
