<svg width="22" height="22" viewBox="0 0 22 22" fill="none" xmlns="http://www.w3.org/2000/svg">
<path d="M17.31 11C19.33 11 20.81 9.36 20.61 7.35L20.33 4.6C19.97 2 18.97 1 16.35 1H13.3L14 8.01C14.17 9.66 15.66 11 17.31 11ZM4.64 11C6.29 11 7.78 9.66 7.94 8.01L8.16 5.8L8.64001 1H5.59C2.97001 1 1.97 2 1.61 4.6L1.34 7.35C1.14 9.36 2.62 11 4.64 11ZM11 16C9.33 16 8.5 16.83 8.5 18.5V21H13.5V18.5C13.5 16.83 12.67 16 11 16Z" stroke="black" stroke-width="1.5" stroke-linecap="round" stroke-linejoin="round"/>
</svg>
