<svg width="212" height="62" viewBox="0 0 212 62" fill="none" xmlns="http://www.w3.org/2000/svg">
<g clip-path="url(#clip0_226_95)">
<path d="M205.682 0.704102H6.3179C3.60402 0.704102 1.40399 2.91215 1.40399 5.63592V56.3632C1.40399 59.087 3.60402 61.295 6.3179 61.295H205.682C208.396 61.295 210.596 59.087 210.596 56.3632V5.63592C210.596 2.91215 208.396 0.704102 205.682 0.704102Z" fill="white" stroke="#E0E0E0"/>
<path fill-rule="evenodd" clip-rule="evenodd" d="M25.2196 13.2425C24.811 13.6751 24.5695 14.3486 24.5695 15.2223V46.3843C24.5695 47.258 24.811 47.9301 25.2196 48.3641L25.322 48.467L42.7173 31.0097V30.804V30.5969L25.322 13.1396L25.2196 13.2425Z" fill="url(#paint0_linear_226_95)"/>
<path fill-rule="evenodd" clip-rule="evenodd" d="M25.2196 13.2425C24.811 13.6751 24.5695 14.3486 24.5695 15.2223V46.3843C24.5695 47.258 24.811 47.9301 25.2196 48.3641L25.322 48.467L42.7173 31.0097V30.804V30.5969L25.322 13.1396L25.2196 13.2425Z" fill="url(#paint1_linear_226_95)"/>
<path fill-rule="evenodd" clip-rule="evenodd" d="M42.7173 30.5969V30.804V31.0098L48.5143 36.8307L48.6477 36.7574L55.5159 32.8373C57.4787 31.7199 57.4787 29.8881 55.5159 28.7693L48.6477 24.852L48.5157 24.7773L42.7173 30.5969Z" fill="#FFD200"/>
<path fill-rule="evenodd" clip-rule="evenodd" d="M42.7173 30.5969V30.804V31.0098L48.5143 36.8307L48.6477 36.7574L55.5159 32.8373C57.4787 31.7199 57.4787 29.8881 55.5159 28.7693L48.6477 24.852L48.5157 24.7773L42.7173 30.5969Z" fill="url(#paint2_linear_226_95)"/>
<path fill-rule="evenodd" clip-rule="evenodd" d="M25.2196 48.3638C25.5566 48.7231 26.01 48.9176 26.5365 48.9246H26.5955C27.063 48.9176 27.5853 48.7654 28.1371 48.4512L48.6477 36.7557L42.7173 30.8037L25.2196 48.3638Z" fill="url(#paint3_linear_226_95)"/>
<path fill-rule="evenodd" clip-rule="evenodd" d="M25.2196 13.2425L42.7173 30.804L48.6477 24.8506L28.1371 13.1551C27.5727 12.8338 27.0378 12.6816 26.5632 12.6816C26.0255 12.6816 25.5622 12.8775 25.2196 13.2425Z" fill="#00F076"/>
<path fill-rule="evenodd" clip-rule="evenodd" d="M25.2196 13.2425L42.7173 30.804L48.6477 24.8506L28.1371 13.1551C27.5727 12.8338 27.0378 12.6816 26.5632 12.6816C26.0255 12.6816 25.5622 12.8775 25.2196 13.2425Z" fill="url(#paint4_linear_226_95)"/>
<path fill-rule="evenodd" clip-rule="evenodd" d="M159.204 45.4209H161.822V27.8059H159.204V45.4209ZM182.799 34.151L179.797 41.7883H179.706L176.59 34.151H173.768L178.442 44.8249L175.777 50.7628H178.51L185.713 34.151H182.799ZM167.94 43.42C167.084 43.42 165.888 42.9888 165.888 41.9235C165.888 40.5652 167.377 40.0424 168.665 40.0424C169.815 40.0424 170.358 40.2932 171.057 40.6314C170.855 42.2645 169.455 43.42 167.94 43.42ZM168.258 33.7649C166.361 33.7649 164.397 34.6047 163.584 36.4619L165.909 37.437C166.407 36.4619 167.333 36.1449 168.303 36.1449C169.658 36.1449 171.036 36.9607 171.057 38.4107V38.5924C170.583 38.3205 169.568 37.9133 168.325 37.9133C165.819 37.9133 163.267 39.2956 163.267 41.8784C163.267 44.2359 165.322 45.7549 167.626 45.7549C169.387 45.7549 170.358 44.9615 170.967 44.0315H171.057V45.3913H173.587V38.6375C173.587 35.5108 171.261 33.7649 168.258 33.7649ZM152.069 36.2956H148.341V30.2577H152.069C154.026 30.2577 155.138 31.8838 155.138 33.2759C155.138 34.6414 154.026 36.2956 152.069 36.2956ZM152 27.8044H145.723V45.4209H148.341V38.7474H152C154.903 38.7474 157.759 36.638 157.759 33.2759C157.759 29.9153 154.903 27.8044 152 27.8044ZM117.769 43.4228C115.96 43.4228 114.445 41.9024 114.445 39.8141C114.445 37.7019 115.96 36.1589 117.769 36.1589C119.557 36.1589 120.959 37.7019 120.959 39.8141C120.959 41.9024 119.557 43.4228 117.769 43.4228ZM120.778 35.1374H120.687C120.099 34.4342 118.968 33.7973 117.543 33.7973C114.557 33.7973 111.821 36.4323 111.821 39.8141C111.821 43.1734 114.557 45.7844 117.543 45.7844C118.968 45.7844 120.099 45.1489 120.687 44.4219H120.778V45.2842C120.778 47.5782 119.557 48.8027 117.588 48.8027C115.984 48.8027 114.988 47.6459 114.581 46.6694L112.297 47.6233C112.951 49.2114 114.693 51.1644 117.588 51.1644C120.666 51.1644 123.266 49.348 123.266 44.9207V34.1609H120.778V35.1374ZM125.076 45.4209H127.698V27.8059H125.076V45.4209ZM131.566 39.6098C131.499 37.2933 133.355 36.1139 134.689 36.1139C135.729 36.1139 136.611 36.6366 136.906 37.3849L131.566 39.6098ZM139.709 37.6117C139.212 36.2731 137.696 33.7973 134.598 33.7973C131.521 33.7973 128.966 36.2266 128.966 39.7916C128.966 43.1509 131.499 45.7844 134.891 45.7844C137.629 45.7844 139.212 44.1048 139.868 43.1283L137.832 41.7657C137.154 42.7648 136.228 43.4228 134.891 43.4228C133.557 43.4228 132.607 42.8099 131.997 41.6065L139.98 38.2923L139.709 37.6117ZM76.0982 35.6376V38.1796H82.1605C81.9794 39.6098 81.5049 40.6539 80.7804 41.3796C79.8973 42.2659 78.5186 43.2424 76.0982 43.2424C72.3664 43.2424 69.4489 40.2228 69.4489 36.4774C69.4489 32.732 72.3664 29.7109 76.0982 29.7109C78.1114 29.7109 79.5814 30.5057 80.6667 31.5287L82.4539 29.7349C80.9391 28.2821 78.9258 27.1689 76.0982 27.1689C70.9863 27.1689 66.6887 31.3469 66.6887 36.4774C66.6887 41.6065 70.9863 45.7844 76.0982 45.7844C78.857 45.7844 80.939 44.8756 82.5663 43.1734C84.2412 41.4938 84.7607 39.1335 84.7607 37.2256C84.7607 36.6366 84.7157 36.0913 84.6259 35.6376H76.0982ZM91.6528 43.4228C89.843 43.4228 88.2818 41.9249 88.2818 39.7916C88.2818 37.6343 89.843 36.1589 91.6528 36.1589C93.4625 36.1589 95.0223 37.6343 95.0223 39.7916C95.0223 41.9249 93.4625 43.4228 91.6528 43.4228ZM91.6528 33.7973C88.3506 33.7973 85.6592 36.3182 85.6592 39.7916C85.6592 43.2424 88.3506 45.7844 91.6528 45.7844C94.9549 45.7844 97.6463 43.2424 97.6463 39.7916C97.6463 36.3182 94.9549 33.7973 91.6528 33.7973ZM104.728 43.4228C102.918 43.4228 101.358 41.9249 101.358 39.7916C101.358 37.6343 102.918 36.1589 104.728 36.1589C106.538 36.1589 108.098 37.6343 108.098 39.7916C108.098 41.9249 106.538 43.4228 104.728 43.4228ZM104.728 33.7973C101.426 33.7973 98.7344 36.3182 98.7344 39.7916C98.7344 43.2424 101.426 45.7844 104.728 45.7844C108.032 45.7844 110.723 43.2424 110.723 39.7916C110.723 36.3182 108.032 33.7973 104.728 33.7973Z" fill="black"/>
<path fill-rule="evenodd" clip-rule="evenodd" d="M146.127 12.5342H144.691V21.1367H146.127V12.5342ZM170.003 21.1367H169.401C169.132 21.1367 168.881 21.1005 168.644 21.0282C168.407 20.9559 168.199 20.8344 168.019 20.6639C167.838 20.4934 167.695 20.2712 167.587 19.9974C167.479 19.7237 167.424 19.38 167.424 18.9667V12.5342H168.86V18.6257C168.86 18.9254 168.927 19.1604 169.061 19.3309C169.194 19.5014 169.406 19.5867 169.694 19.5867H170.003C169.962 19.5867 169.926 19.6307 169.895 19.7184C169.864 19.8062 169.848 20.031 169.848 20.3927L169.85 20.5477C169.854 20.7888 169.87 20.9438 169.895 21.0127C169.926 21.0954 169.962 21.1367 170.003 21.1367ZM170.003 21.1367H173.339C174.059 21.1367 174.615 20.9377 175.007 20.5399C175.398 20.1422 175.594 19.5557 175.594 18.7807V17.0137H174.173V18.6722C174.173 19.2819 173.858 19.5867 173.231 19.5867H170.003V21.1367ZM184.983 17.6182C185.24 17.9075 185.428 18.1969 185.548 18.4862C185.666 18.7755 185.725 19.0545 185.725 19.3232C185.725 19.8295 185.545 20.2584 185.184 20.6097C184.823 20.961 184.294 21.1367 183.593 21.1367H179.856L179.779 19.5867H183.362C183.825 19.5867 184.057 19.411 184.057 19.0597C184.057 18.9192 184.003 18.782 183.898 18.648L181.416 15.8202L182.543 14.7662L184.983 17.6182ZM174.883 22.9967H175.068C175.46 22.9967 175.794 22.9372 176.072 22.8184C176.35 22.6997 176.579 22.5447 176.76 22.3534C176.94 22.1622 177.071 21.9402 177.153 21.6869C177.236 21.4337 177.277 21.1729 177.277 20.9042V17.0137H178.698V20.9042C178.698 21.4105 178.611 21.8859 178.435 22.3302C178.26 22.7745 178.024 23.1594 177.725 23.4849C177.426 23.8104 177.069 24.0687 176.652 24.2599C176.235 24.4512 175.789 24.5467 175.316 24.5467H174.96L174.883 22.9967ZM173.802 24.1127H172.366V22.7332H173.802V24.1127ZM170.327 24.1127H171.779V22.7332H170.327V24.1127ZM159.748 20.3927L159.75 20.5477C159.754 20.7888 159.769 20.9438 159.795 21.0127C159.826 21.0954 159.862 21.1367 159.903 21.1367H159.563C159.223 21.1367 158.905 21.0799 158.605 20.9662C158.306 20.8525 158.049 20.6149 157.833 20.2532C157.607 20.6149 157.357 20.8525 157.085 20.9662C156.811 21.0799 156.521 21.1367 156.212 21.1367H151.486C151.094 21.1367 150.763 21.0772 150.49 20.9584C150.217 20.8397 149.996 20.682 149.826 20.4857C149.657 20.2894 149.53 20.0594 149.447 19.7959C149.365 19.5324 149.324 19.256 149.324 18.9667V16.9517H150.745V18.5947C150.745 18.9047 150.815 19.1475 150.954 19.3232C151.093 19.4989 151.372 19.5867 151.795 19.5867H156.212C156.839 19.5867 157.154 19.2819 157.154 18.6722V17.0137H158.59V18.6722C158.59 19.0029 158.693 19.2379 158.899 19.3774C159.105 19.5169 159.347 19.5867 159.625 19.5867H159.903C159.862 19.5868 159.826 19.6308 159.795 19.7184C159.764 19.8062 159.748 20.031 159.748 20.3927ZM163.069 21.1367H159.903V19.5867H161.169C161.324 19.5867 161.457 19.5892 161.571 19.5944L161.735 19.6042L161.888 19.6177C161.985 19.628 162.08 19.6409 162.173 19.6564C162.266 19.6719 162.368 19.6952 162.482 19.7262C162.152 19.5815 161.889 19.4342 161.694 19.2844C161.499 19.1347 161.349 18.9692 161.246 18.7884C161.144 18.6077 161.076 18.4112 161.046 18.1994C161.015 17.9877 160.999 17.7525 160.999 17.4942C160.999 17.2359 161.048 16.9724 161.147 16.7037C161.244 16.435 161.391 16.1922 161.586 15.9752C161.781 15.7582 162.024 15.5799 162.312 15.4404C162.6 15.3009 162.94 15.2312 163.331 15.2312C163.692 15.2312 164.021 15.2777 164.32 15.3707C164.619 15.4637 164.876 15.6187 165.092 15.8357C165.308 16.0527 165.475 16.3394 165.594 16.6959C165.712 17.0524 165.771 17.489 165.771 18.0057V18.7187C165.771 19.473 165.555 20.0647 165.123 20.4934C164.69 20.9222 164.005 21.1367 163.069 21.1367ZM163.3 16.7812C162.961 16.7812 162.711 16.8872 162.552 17.0989C162.392 17.3107 162.312 17.5355 162.312 17.7732C162.312 17.8972 162.327 18.0187 162.358 18.1374C162.389 18.2562 162.466 18.3777 162.59 18.5017C162.713 18.6257 162.899 18.7574 163.146 18.8969C163.393 19.0364 163.727 19.194 164.15 19.3697C164.233 19.2767 164.294 19.1502 164.335 18.9899C164.376 18.8297 164.397 18.667 164.397 18.5017V18.1297C164.397 17.737 164.32 17.4142 164.165 17.1609C164.011 16.9077 163.723 16.7812 163.3 16.7812ZM162.544 14.0687H164.119V12.6427H162.544V14.0687ZM154.219 15.8667H155.687V14.4872H154.219V15.8667ZM153.679 15.8667H152.212V14.4872H153.679V15.8667ZM143.27 20.9042C143.27 21.4105 143.183 21.8859 143.007 22.3302C142.832 22.7745 142.596 23.1594 142.297 23.4849C141.998 23.8104 141.641 24.0687 141.224 24.2599C140.807 24.4512 140.361 24.5467 139.888 24.5467H139.007L138.93 22.9967H139.532C139.944 22.9967 140.297 22.9372 140.591 22.8184C140.885 22.6997 141.123 22.5447 141.309 22.3534C141.494 22.1622 141.63 21.9402 141.718 21.6869C141.806 21.4337 141.849 21.1729 141.849 20.9042V17.0137H143.27V20.9042ZM141.71 15.3707H143.285V13.9447H141.71V15.3707Z" fill="black"/>
</g>
<defs>
<linearGradient id="paint0_linear_226_95" x1="24.5695" y1="13.1396" x2="24.5695" y2="48.467" gradientUnits="userSpaceOnUse">
<stop stop-color="white"/>
<stop offset="1"/>
</linearGradient>
<linearGradient id="paint1_linear_226_95" x1="23.727" y1="6.71691" x2="3.39016" y2="29.838" gradientUnits="userSpaceOnUse">
<stop stop-color="#00C3FF"/>
<stop offset="1" stop-color="#06E1FF"/>
</linearGradient>
<linearGradient id="paint2_linear_226_95" x1="42.7173" y1="36.8307" x2="56.988" y2="36.8307" gradientUnits="userSpaceOnUse">
<stop stop-color="#FEBD00"/>
<stop offset="1" stop-color="#FFDB00"/>
</linearGradient>
<linearGradient id="paint3_linear_226_95" x1="24.6944" y1="21.6801" x2="2.21369" y2="59.3944" gradientUnits="userSpaceOnUse">
<stop stop-color="#FF3A44"/>
<stop offset="1" stop-color="#C31162"/>
</linearGradient>
<linearGradient id="paint4_linear_226_95" x1="16.3866" y1="20.0091" x2="27.2615" y2="39.5472" gradientUnits="userSpaceOnUse">
<stop stop-color="#04E975"/>
<stop offset="1" stop-color="#00F076"/>
</linearGradient>
<clipPath id="clip0_226_95">
<rect width="212" height="62" fill="white"/>
</clipPath>
</defs>
</svg>
