<svg width="22" height="22" viewBox="0 0 22 22" fill="none" xmlns="http://www.w3.org/2000/svg">
<path d="M11 7.13001V11.96M9.75 1.45001C10.45 0.860007 11.58 0.860007 12.26 1.45001L13.84 2.80001C14.14 3.05001 14.71 3.26001 15.11 3.26001H16.81C17.87 3.26001 18.74 4.13001 18.74 5.19001V6.89001C18.74 7.29001 18.95 7.85001 19.2 8.15001L20.55 9.73001C21.14 10.43 21.14 11.56 20.55 12.24L19.2 13.82C18.95 14.12 18.74 14.68 18.74 15.08V16.78C18.74 17.84 17.87 18.71 16.81 18.71H15.11C14.71 18.71 14.15 18.92 13.85 19.17L12.27 20.52C11.57 21.11 10.44 21.11 9.76 20.52L8.18001 19.17C7.88001 18.92 7.31 18.71 6.92 18.71H5.17C4.11 18.71 3.24 17.84 3.24 16.78V15.07C3.24 14.68 3.04 14.11 2.79 13.82L1.44 12.23C0.860005 11.54 0.860005 10.42 1.44 9.73001L2.79 8.14001C3.04 7.84001 3.24 7.28001 3.24 6.89001V5.20001C3.24 4.14001 4.11 3.27001 5.17 3.27001H6.9C7.3 3.27001 7.86 3.06001 8.16 2.81001L9.75 1.45001Z" stroke="black" stroke-width="1.5" stroke-linecap="round" stroke-linejoin="round"/>
</svg>
